<svg class="main-svg" xmlns="http://www.w3.org/2000/svg" xmlns:xlink="http://www.w3.org/1999/xlink" width="640" height="640" style="" viewBox="0 0 640 640"><rect x="0" y="0" width="640" height="640" style="fill: rgb(255, 255, 255); fill-opacity: 1;"/><defs id="defs-fccaab"><g class="clips"><clipPath id="clipfccaabpolar-for-traces"><path d="M260,0A260,260 0,1,0 -260,-3.184081677783118e-14A260,260 0,1,0 260,6.368163355566237e-14Z" transform="translate(260,260)"/></clipPath></g><g class="gradients"/><g class="patterns"/></defs><g class="bglayer"/><g class="layer-below"><g class="imagelayer"/><g class="shapelayer"/></g><g class="cartesianlayer"/><g class="polarlayer"><g class="polar"><g class="polarsublayer draglayer"/><g class="polarsublayer plotbg"><path d="M260,0A260,260 0,1,0 -260,-3.184081677783118e-14A260,260 0,1,0 260,6.368163355566237e-14Z" transform="translate(320,320)" style="fill: rgb(14, 17, 23); fill-opacity: 1;"/></g><g class="polarsublayer backplot"><g class="maplayer"/></g><g class="polarsublayer angular-grid" style="fill: none;"><path class="angularaxisgrid" d="M320,320L580,320" style="stroke: rgb(225, 140, 0); stroke-opacity: 0.4; stroke-dasharray: 9px, 9px; stroke-width: 1px;"/><path class="angularaxisgrid" d="M320,320L545.1666049839541,190.00000000000003" style="stroke: rgb(225, 140, 0); stroke-opacity: 0.4; stroke-dasharray: 9px, 9px; stroke-width: 1px;"/><path class="angularaxisgrid" d="M320,320L450,94.83339501604596" style="stroke: rgb(225, 140, 0); stroke-opacity: 0.4; stroke-dasharray: 9px, 9px; stroke-width: 1px;"/><path class="angularaxisgrid" d="M320,320L320,60" style="stroke: rgb(225, 140, 0); stroke-opacity: 0.4; stroke-dasharray: 9px, 9px; stroke-width: 1px;"/><path class="angularaxisgrid" d="M320,320L190.00000000000006,94.83339501604593" style="stroke: rgb(225, 140, 0); stroke-opacity: 0.4; stroke-dasharray: 9px, 9px; stroke-width: 1px;"/><path class="angularaxisgrid" d="M320,320L94.83339501604593,190.00000000000003" style="stroke: rgb(225, 140, 0); stroke-opacity: 0.4; stroke-dasharray: 9px, 9px; stroke-width: 1px;"/><path class="angularaxisgrid" d="M320,320L60,319.99999999999994" style="stroke: rgb(225, 140, 0); stroke-opacity: 0.4; stroke-dasharray: 9px, 9px; stroke-width: 1px;"/><path class="angularaxisgrid" d="M320,320L94.83339501604596,450" style="stroke: rgb(225, 140, 0); stroke-opacity: 0.4; stroke-dasharray: 9px, 9px; stroke-width: 1px;"/><path class="angularaxisgrid" d="M320,320L189.9999999999999,545.166604983954" style="stroke: rgb(225, 140, 0); stroke-opacity: 0.4; stroke-dasharray: 9px, 9px; stroke-width: 1px;"/><path class="angularaxisgrid" d="M320,320L319.99999999999994,580" style="stroke: rgb(225, 140, 0); stroke-opacity: 0.4; stroke-dasharray: 9px, 9px; stroke-width: 1px;"/><path class="angularaxisgrid" d="M320,320L450,545.166604983954" style="stroke: rgb(225, 140, 0); stroke-opacity: 0.4; stroke-dasharray: 9px, 9px; stroke-width: 1px;"/><path class="angularaxisgrid" d="M320,320L545.166604983954,450.0000000000001" style="stroke: rgb(225, 140, 0); stroke-opacity: 0.4; stroke-dasharray: 9px, 9px; stroke-width: 1px;"/></g><g class="polarsublayer radial-grid" display="none" style="fill: none;"/><g class="polarsublayer frontplot" transform="translate(60,59.99999999999997)" clip-path="url(#clipfccaabpolar-for-traces)"><g class="barlayer"><g class="trace bars" style="opacity: 1;"><g class="points"><g class="point" style="vector-effect: none; stroke-miterlimit: 2;"><path d="M260,260L262.8995449664711,13.01701953578376A247,247 0,0,0 254.27819692973583,13.066282234229675L260,260A0,0 0,0,1 260,260Z" style="opacity: 1; stroke-width: 0px; fill: rgb(144, 238, 144); fill-opacity: 0.9;"/></g><g class="point" style="vector-effect: none; stroke-miterlimit: 2;"><path d="M0,0Z" style="opacity: 1; stroke-width: 0px; fill: rgb(115, 190, 115); fill-opacity: 0.6;"/></g><g class="point" style="vector-effect: none; stroke-miterlimit: 2;"><path d="M260,260L295.90925165288843,15.624212235071184A247,247 0,0,0 261.5492491014569,13.004858697136228L260,260A0,0 0,0,1 260,260Z" style="opacity: 1; stroke-width: 0px; fill: rgb(58, 95, 58); fill-opacity: 0.3;"/></g></g></g></g><g class="scatterlayer"/></g><g class="polarsublayer angular-line"><path d="M260,0A260,260 0,1,0 -260,-3.184081677783118e-14A260,260 0,1,0 260,6.368163355566237e-14Z" transform="translate(320,320)" stroke-width="1" style="fill: none; stroke: rgb(0, 0, 255); stroke-opacity: 1;"/></g><g class="polarsublayer radial-line"><line display="none" style="fill: none; stroke: rgb(0, 0, 0); stroke-opacity: 1;"/></g><g class="polarsublayer angular-axis"><path class="angularaxistick ticks" d="M0.5,0h5" transform="translate(580,320)" style="stroke: rgb(68, 68, 68); stroke-opacity: 1; stroke-width: 1px;"/><path class="angularaxistick ticks" d="M0.5,0h5" transform="translate(545.1666049839541,190.00000000000003)rotate(-30)" style="stroke: rgb(68, 68, 68); stroke-opacity: 1; stroke-width: 1px;"/><path class="angularaxistick ticks" d="M0.5,0h5" transform="translate(450,94.83339501604596)rotate(-60)" style="stroke: rgb(68, 68, 68); stroke-opacity: 1; stroke-width: 1px;"/><path class="angularaxistick ticks" d="M0.5,0h5" transform="translate(320,60)rotate(-90)" style="stroke: rgb(68, 68, 68); stroke-opacity: 1; stroke-width: 1px;"/><path class="angularaxistick ticks" d="M0.5,0h5" transform="translate(190.00000000000006,94.83339501604593)rotate(-120)" style="stroke: rgb(68, 68, 68); stroke-opacity: 1; stroke-width: 1px;"/><path class="angularaxistick ticks" d="M0.5,0h5" transform="translate(94.83339501604593,190.00000000000003)rotate(-150)" style="stroke: rgb(68, 68, 68); stroke-opacity: 1; stroke-width: 1px;"/><path class="angularaxistick ticks" d="M0.5,0h5" transform="translate(60,319.99999999999994)rotate(-180)" style="stroke: rgb(68, 68, 68); stroke-opacity: 1; stroke-width: 1px;"/><path class="angularaxistick ticks" d="M0.5,0h5" transform="translate(94.83339501604596,450)rotate(-210)" style="stroke: rgb(68, 68, 68); stroke-opacity: 1; stroke-width: 1px;"/><path class="angularaxistick ticks" d="M0.5,0h5" transform="translate(189.9999999999999,545.166604983954)rotate(-240)" style="stroke: rgb(68, 68, 68); stroke-opacity: 1; stroke-width: 1px;"/><path class="angularaxistick ticks" d="M0.5,0h5" transform="translate(319.99999999999994,580)rotate(-270)" style="stroke: rgb(68, 68, 68); stroke-opacity: 1; stroke-width: 1px;"/><path class="angularaxistick ticks" d="M0.5,0h5" transform="translate(450,545.166604983954)rotate(-300)" style="stroke: rgb(68, 68, 68); stroke-opacity: 1; stroke-width: 1px;"/><path class="angularaxistick ticks" d="M0.5,0h5" transform="translate(545.166604983954,450.0000000000001)rotate(-330)" style="stroke: rgb(68, 68, 68); stroke-opacity: 1; stroke-width: 1px;"/><g class="angularaxistick"><text text-anchor="start" x="7.9" y="4.199999999999999" transform="translate(580,320)" style="font-family: 'Open Sans', verdana, arial, sans-serif; font-size: 12px; fill: rgb(68, 68, 68); fill-opacity: 1; white-space: pre; opacity: 1;">Cash</text></g><g class="angularaxistick"><text text-anchor="start" x="6.841600689897066" y="-1.5126933041053574" transform="translate(545.1666049839541,190.00000000000003)" style="font-family: 'Open Sans', verdana, arial, sans-serif; font-size: 12px; fill: rgb(68, 68, 68); fill-opacity: 1; white-space: pre; opacity: 1;">US03M / 01Y</text></g><g class="angularaxistick"><text text-anchor="start" x="3.950000000000001" y="-6.820061658979718" transform="translate(450,94.83339501604596)" style="font-family: 'Open Sans', verdana, arial, sans-serif; font-size: 12px; fill: rgb(68, 68, 68); fill-opacity: 1; white-space: pre; opacity: 1;">US02Y / 05Y</text></g><g class="angularaxistick"><text text-anchor="middle" x="4.837354856632045e-16" y="-10.3" transform="translate(320,60)" style="font-family: 'Open Sans', verdana, arial, sans-serif; font-size: 12px; fill: rgb(68, 68, 68); fill-opacity: 1; white-space: pre; opacity: 1;">US10Y</text></g><g class="angularaxistick"><text text-anchor="end" x="-3.9499999999999984" y="-6.8200616589797205" transform="translate(190.00000000000006,94.83339501604593)" style="font-family: 'Open Sans', verdana, arial, sans-serif; font-size: 12px; fill: rgb(68, 68, 68); fill-opacity: 1; white-space: pre; opacity: 1;">330</text></g><g class="angularaxistick"><text text-anchor="end" x="-6.841600689897066" y="-1.5126933041053574" transform="translate(94.83339501604593,190.00000000000003)" style="font-family: 'Open Sans', verdana, arial, sans-serif; font-size: 12px; fill: rgb(68, 68, 68); fill-opacity: 1; white-space: pre; opacity: 1;">US30Y</text></g><g class="angularaxistick"><text text-anchor="end" x="-7.9" y="4.199999999999998" transform="translate(60,319.99999999999994)" style="font-family: 'Open Sans', verdana, arial, sans-serif; font-size: 12px; fill: rgb(68, 68, 68); fill-opacity: 1; white-space: pre; opacity: 1;">Stocks</text></g><g class="angularaxistick"><text text-anchor="end" x="-6.841600689897065" y="13.587306695894643" transform="translate(94.83339501604596,450)" style="font-family: 'Open Sans', verdana, arial, sans-serif; font-size: 12px; fill: rgb(68, 68, 68); fill-opacity: 1; white-space: pre; opacity: 1;">Energy</text></g><g class="angularaxistick"><text text-anchor="end" x="-3.9500000000000037" y="19.333905535310326" transform="translate(189.9999999999999,545.166604983954)" style="font-family: 'Open Sans', verdana, arial, sans-serif; font-size: 12px; fill: rgb(68, 68, 68); fill-opacity: 1; white-space: pre; opacity: 1;">Metal</text></g><g class="angularaxistick"><text text-anchor="middle" x="-1.4512064569896135e-15" y="19.9" transform="translate(319.99999999999994,580)" style="font-family: 'Open Sans', verdana, arial, sans-serif; font-size: 12px; fill: rgb(68, 68, 68); fill-opacity: 1; white-space: pre; opacity: 1;">Gold</text></g><g class="angularaxistick"><text text-anchor="start" x="3.950000000000001" y="19.33390553531033" transform="translate(450,545.166604983954)" style="font-family: 'Open Sans', verdana, arial, sans-serif; font-size: 12px; fill: rgb(68, 68, 68); fill-opacity: 1; white-space: pre; opacity: 1;">Weat</text></g><g class="angularaxistick"><text text-anchor="start" x="6.841600689897064" y="13.587306695894648" transform="translate(545.166604983954,450.0000000000001)" style="font-family: 'Open Sans', verdana, arial, sans-serif; font-size: 12px; fill: rgb(68, 68, 68); fill-opacity: 1; white-space: pre; opacity: 1;">Corn</text></g></g><g class="polarsublayer radial-axis" display="none"/></g></g><g class="smithlayer"/><g class="ternarylayer"/><g class="geolayer"/><g class="funnelarealayer"/><g class="pielayer"/><g class="iciclelayer"/><g class="treemaplayer"/><g class="sunburstlayer"/><g class="glimages"/><defs id="topdefs-fccaab"><g class="clips"/></defs><g class="layer-above"><g class="imagelayer"/><g class="shapelayer"/></g><g class="infolayer"><g class="g-gtitle"/><g class="g-polartitle"/></g></svg>